PathFileType	4	(X/Y/Z)	/Users/itak/Documents/Research/Walk-IL/dataset/trc/00371_00011.trc
DataRate	CameraRate	NumFrames	NumMarkers	Units	OrigDataRate	OrigDataStartFrame	OrigNumFrames
100.000000	100.000000	4	55	mm	100.000000	125	501
Frame#	Time	LPSI			L3			STRN			T10			C7			CLAV			RBAK			LBAK			LSHO			LUPA			LAEL			LAOL			LWTS			LWPS			LFRA			LIFD			LHPS			LHTS			RSHO			RUPA			RAEL			RAOL			RWTS			RWPS			RFRA			RIFD			RHTS			RHPS			RBHD			LFHD			RFHD			LBHD			LHIP			RHIP			RASI			LASI			LKNE			LTHI			LANK			LTIP			LTOE			LMT1			LMT5			LHEE			RKNE			RTHI			RANK			RTIP			RTOE			RMT1			RMT5			RHEE			RPSI			*53			*54			
		X1	Y1	Z1	X2	Y2	Z2	X3	Y3	Z3	X4	Y4	Z4	X5	Y5	Z5	X6	Y6	Z6	X7	Y7	Z7	X8	Y8	Z8	X9	Y9	Z9	X10	Y10	Z10	X11	Y11	Z11	X12	Y12	Z12	X13	Y13	Z13	X14	Y14	Z14	X15	Y15	Z15	X16	Y16	Z16	X17	Y17	Z17	X18	Y18	Z18	X19	Y19	Z19	X20	Y20	Z20	X21	Y21	Z21	X22	Y22	Z22	X23	Y23	Z23	X24	Y24	Z24	X25	Y25	Z25	X26	Y26	Z26	X27	Y27	Z27	X28	Y28	Z28	X29	Y29	Z29	X30	Y30	Z30	X31	Y31	Z31	X32	Y32	Z32	X33	Y33	Z33	X34	Y34	Z34	X35	Y35	Z35	X36	Y36	Z36	X37	Y37	Z37	X38	Y38	Z38	X39	Y39	Z39	X40	Y40	Z40	X41	Y41	Z41	X42	Y42	Z42	X43	Y43	Z43	X44	Y44	Z44	X45	Y45	Z45	X46	Y46	Z46	X47	Y47	Z47	X48	Y48	Z48	X49	Y49	Z49	X50	Y50	Z50	X51	Y51	Z51	X52	Y52	Z52	X53	Y53	Z53	X54	Y54	Z54	X55	Y55	Z55	

126	1.25	-1125.451538085938	966.46142578125	-220.0204620361328	-1123.552001953125	1033.786010742188	-163.7453155517578	-870.3763427734375	1190.923095703125	-156.114990234375	-1114.985717773438	1151.754638671875	-189.6924133300781	-1047.444213867188	1389.610961914062	-200.5347137451172	-902.0262451171875	1319.815185546875	-160.6846771240234	-1117.417724609375	1250.96240234375	-149.5588989257812	-1037.341674804688	1355.71240234375	-303.7855834960938	-939.0947265625	1369.404541015625	-336.9015808105469	-939.2029418945312	1249.092041015625	-408.2583618164062	-908.4902954101562	1044.466674804688	-411.0352478027344	-987.7598876953125	1027.94677734375	-383.5985412597656	-800.1032104492188	829.5823364257812	-302.9041442871094	-817.7345581054688	803.70166015625	-364.7244873046875	-878.9188842773438	941.7940673828125	-400.8678588867188	-780.30810546875	669.5640869140625	-266.5125122070312	-814.7568969726562	735.3509521484375	-346.6785278320312	-775.75732421875	751.40185546875	-298.2776794433594	-1031.7236328125	1368.978637695312	-28.89276123046875	-1064.800170898438	1306.262573242188	27.0888671875	-1098.56689453125	1041.74072265625	63.13408279418945	-1111.197143554688	1036.105346679688	-30.56462287902832	-992.574951171875	807.1951293945312	44.51567077636719	-1045.880004882812	793.432373046875	101.6343460083008	-1082.761962890625	972.2626342773438	79.33483123779297	-989.0028076171875	633.9268798828125	57.40861511230469	-974.9317626953125	704.2737426757812	67.62670135498047	-1036.1962890625	709.8109741210938	103.5004196166992	-1011.769653320312	1585.9912109375	-95.99895477294922	-815.6130981445312	1588.018188476562	-167.5863189697266	-850.8720092773438	1584.931030273438	-72.40470886230469	-988.2463989257812	1588.260375976562	-238.6211700439453	-1053.544555664062	901.6806030273438	-330.3241271972656	-1022.688354492188	912.108642578125	10.62893772125244	-925.6245727539062	936.9408569335938	-47.43859481811523	-924.5013427734375	922.4876708984375	-285.3803405761719	-1067.041870117188	443.7272644042969	-292.6059875488281	-1047.723266601562	582.5548706054688	-307.8356628417969	-1248.912475585938	49.84312057495117	-242.2844085693359	-1157.461547851562	237.9407196044922	-278.3064270019531	-1044.388671875	45.63106918334961	-182.6611328125	-1111.729125976562	36.55616760253906	-140.5111083984375	-1124.595703125	41.87575912475586	-255.4390563964844	-1282.221435546875	53.07651901245117	-173.9508972167969	-794.7586059570312	494.1271667480469	-33.08794021606445	-879.55517578125	739.203125	3.449466228485107	-859.2337036132812	78.49845123291016	-95.35612487792969	-781.3977661132812	369.6707763671875	-50.68402862548828	-665.092529296875	70.51006317138672	-121.7692337036133	-713.870361328125	65.57355499267578	-170.1373596191406	-764.38134765625	56.26807403564453	-63.77635955810547	-902.41259765625	87.55628204345703	-148.4897613525391	-1116.86669921875	959.9283447265625	-89.82233428955078	nan	nan	nan	nan	nan	nan	
127	1.26	-1119.965576171875	965.9364013671875	-219.6130981445312	-1117.436157226562	1033.3525390625	-163.3713531494141	-864.7872924804688	1189.636962890625	-156.3680572509766	-1109.186279296875	1150.94384765625	-190.2528686523438	-1041.34033203125	1388.6455078125	-201.2465362548828	-896.1982421875	1318.579467773438	-160.9526977539062	-1111.66357421875	1250.017700195312	-150.5201568603516	-1031.0146484375	1354.793823242188	-304.5177917480469	-932.60546875	1368.352783203125	-337.2486572265625	-932.3738403320312	1248.04248046875	-408.5993957519531	-901.2008056640625	1043.429321289062	-411.199951171875	-980.4786376953125	1026.582275390625	-384.2079467773438	-792.5128784179688	829.8350219726562	-300.9848327636719	-809.3360595703125	803.4708862304688	-362.8099670410156	-871.20263671875	940.9546508789062	-400.3725280761719	-771.841552734375	670.3816528320312	-263.0995483398438	-806.0419921875	735.2703247070312	-344.2078857421875	-767.516845703125	752.03173828125	-295.5697021484375	-1026.23046875	1367.890869140625	-29.57762336730957	-1059.863159179688	1305.346557617188	26.23581123352051	-1095.781127929688	1041.026611328125	61.38543319702148	-1107.633666992188	1035.669921875	-32.41275787353516	-991.4598999023438	805.606689453125	43.18540954589844	-1045.370239257812	792.272216796875	99.85384368896484	-1080.648681640625	971.4072875976562	77.58159637451172	-989.6300048828125	632.264892578125	56.02728652954102	-974.9076538085938	702.567626953125	66.32516479492188	-1036.6435546875	708.50830078125	101.9093322753906	-1006.21240234375	1584.599487304688	-96.37652587890625	-809.6229858398438	1587.0537109375	-166.8126983642578	-845.5097045898438	1583.727416992188	-71.77638244628906	-981.86767578125	1587.1552734375	-238.8375244140625	-1048.603637695312	900.8677368164062	-330.0333557128906	-1016.951538085938	911.0457763671875	10.80489253997803	-919.9454345703125	935.584716796875	-47.48839950561523	-919.3192749023438	921.2032470703125	-285.4104614257812	-1065.066040039062	443.3608093261719	-292.92138671875	-1044.80517578125	582.0016479492188	-308.0237731933594	-1248.840698242188	50.09602737426758	-242.0727233886719	-1156.784545898438	238.0886840820312	-278.4836730957031	-1044.366455078125	45.65991592407227	-182.7230987548828	-1111.716064453125	36.61534118652344	-140.5730133056641	-1124.605590820312	41.92156600952148	-255.5125427246094	-1281.992309570312	53.73072814941406	-173.6629791259766	-793.1940307617188	490.2154235839844	-34.64609909057617	-875.200439453125	736.8887329101562	3.211851119995117	-836.56884765625	72.64794158935547	-100.1746063232422	-774.6767578125	366.793212890625	-52.54964447021484	-642.0107421875	74.70015716552734	-123.7351379394531	-689.7064819335938	67.63479614257812	-172.8258209228516	-741.1765747070312	54.90804290771484	-67.19840240478516	-879.2821044921875	79.73138427734375	-153.8254547119141	-1111.074462890625	959.3707885742188	-89.44504547119141	nan	nan	nan	nan	nan	nan	
128	1.27	-1114.29833984375	965.3120727539062	-219.1173400878906	-1111.165649414062	1032.809326171875	-162.8377380371094	-859.0538940429688	1188.241455078125	-156.5437622070312	-1103.227783203125	1149.954345703125	-190.6883850097656	-1035.131225585938	1387.541625976562	-201.8594512939453	-890.2073364257812	1317.258178710938	-161.1698913574219	-1105.756103515625	1248.940551757812	-151.3327484130859	-1024.629272460938	1353.715209960938	-305.1451721191406	-926.0836791992188	1367.139038085938	-337.5502319335938	-925.5626220703125	1246.816162109375	-408.8674926757812	-893.9043579101562	1042.226318359375	-411.3136901855469	-973.197509765625	1025.088623046875	-384.7301635742188	-784.8496704101562	829.9368896484375	-299.1076965332031	-800.9119873046875	803.1041259765625	-360.9157104492188	-863.4679565429688	939.9595336914062	-399.8533935546875	-763.1929931640625	671.1118774414062	-259.7822570800781	-797.284912109375	735.0602416992188	-341.7608947753906	-759.1875610351562	752.5360717773438	-292.9412231445312	-1020.580627441406	1366.705688476562	-30.18011093139648	-1054.712524414062	1304.337890625	25.49485397338867	-1092.750610351562	1040.229248046875	59.68242263793945	-1103.846435546875	1035.156005859375	-34.20140075683594	-990.2704467773438	803.8820190429688	41.86722183227539	-1044.761840820312	791.0197143554688	98.09379577636719	-1078.317016601562	970.47412109375	75.86063385009766	-990.329833984375	630.4866943359375	54.61548233032227	-974.8463134765625	700.7365112304688	64.99360656738281	-1037.039428710938	707.1178588867188	100.2920989990234	-1000.529113769531	1583.132934570312	-96.71285247802734	-803.5507202148438	1585.9677734375	-166.0380249023438	-840.0238037109375	1582.411376953125	-71.16210174560547	-975.395751953125	1585.96240234375	-239.0075836181641	-1043.50048828125	899.9841918945312	-329.6842346191406	-1011.02978515625	909.736572265625	11.06296539306641	-914.0955200195312	934.00634765625	-47.4733772277832	-913.9613647460938	919.8113403320312	-285.3674621582031	-1062.943237304688	442.9326477050781	-293.2335205078125	-1041.728759765625	581.3807983398438	-308.1919250488281	-1248.79296875	50.37328720092773	-241.8357696533203	-1156.024047851562	238.2063140869141	-278.6275329589844	-1044.346801757812	45.6872444152832	-182.7824859619141	-1111.715087890625	36.66142654418945	-140.6233825683594	-1124.610717773438	41.96916961669922	-255.5758056640625	-1281.786376953125	54.45438003540039	-173.3588714599609	-791.76025390625	486.0025634765625	-36.35929870605469	-870.881103515625	734.0792846679688	2.996650218963623	-813.9057006835938	67.50788879394531	-104.4557571411133	-768.1959228515625	363.9282836914062	-54.44255065917969	-619.4961547851562	79.59121704101562	-125.19384765625	-666.0106811523438	70.47348785400391	-175.022216796875	-718.1951293945312	54.27688980102539	-70.13162994384766	-856.05712890625	72.63966369628906	-158.6180114746094	-1105.098266601562	958.6544189453125	-88.98110198974609	nan	nan	nan	nan	nan	nan	
129	1.28	-1108.4462890625	964.5963745117188	-218.5261077880859	-1104.750854492188	1032.1357421875	-162.1764526367188	-853.1637573242188	1186.743896484375	-156.6389617919922	-1097.101806640625	1148.797729492188	-190.9873352050781	-1028.817993164062	1386.302978515625	-202.3704223632812	-884.0481567382812	1315.85693359375	-161.3267059326172	-1099.692504882812	1247.73046875	-151.9950561523438	-1018.180419921875	1352.48095703125	-305.6629943847656	-919.5226440429688	1365.773071289062	-337.8009948730469	-918.7622680664062	1245.421508789062	-409.0599670410156	-886.6041259765625	1040.8642578125	-411.3676452636719	-965.9218139648438	1023.471862792969	-385.1514892578125	-777.107421875	829.9009399414062	-297.3009338378906	-792.475830078125	802.5975341796875	-359.0576782226562	-855.72119140625	938.8133544921875	-399.3086853027344	-754.3778686523438	671.7359008789062	-256.583251953125	-788.5111083984375	734.7159423828125	-339.3633422851562	-750.796630859375	752.8938598632812	-290.4089660644531	-1014.781005859375	1365.421875	-30.69629287719727	-1049.34619140625	1303.234497070312	24.87057685852051	-1089.47021484375	1039.345947265625	58.03169631958008	-1099.82177734375	1034.560180664062	-35.92619323730469	-989.008544921875	802.0303344726562	40.56777572631836	-1044.048828125	789.6793212890625	96.35772705078125	-1075.759643554688	969.464111328125	74.18016052246094	-991.085693359375	628.603515625	53.17695999145508	-974.7351684570312	698.786865234375	63.63802719116211	-1037.350830078125	705.65673828125	98.63642120361328	-994.7163696289062	1581.60400390625	-97.00454711914062	-797.3844604492188	1584.763305664062	-165.2675933837891	-834.4035034179688	1580.990112304688	-70.56549835205078	-968.8345336914062	1584.687133789062	-239.1321563720703	-1038.236206054688	899.0416259765625	-329.2775573730469	-1004.926574707031	908.190673828125	11.40149593353271	-908.0731811523438	932.2255249023438	-47.3849983215332	-908.4388427734375	918.3190307617188	-285.251220703125	-1060.671875	442.4446411132812	-293.5398254394531	-1038.495727539062	580.6996459960938	-308.3345642089844	-1248.771118164062	50.68594360351562	-241.5740203857422	-1155.168090820312	238.2943420410156	-278.727294921875	-1044.32275390625	45.7044563293457	-182.8386077880859	-1111.71875	36.69601440429688	-140.6619720458984	-1124.609497070312	42.02072906494141	-255.6262512207031	-1281.607666015625	55.26110076904297	-173.041259765625	-790.2993774414062	481.5797119140625	-38.24942779541016	-866.6082153320312	730.8159790039062	2.852867841720581	-791.4835205078125	63.17635345458984	-108.1778182983398	-761.8912353515625	361.178466796875	-56.36854553222656	-597.7489624023438	85.09026336669922	-126.1136932373047	-642.9983520507812	74.04141235351562	-176.6927032470703	-695.6876220703125	54.38195419311523	-72.55210113525391	-832.9724731445312	66.40608978271484	-162.8475494384766	-1098.943969726562	957.785888671875	-88.42845916748047	nan	nan	nan	nan	nan	nan	
